PathFileType	4	(X/Y/Z)	OpenSim_Sub02_EMGBaseline_Gyro.trc
DataRate	CameraRate	NumFrames	NumMarkers	Units	OrigDataRate	OrigDataStartFrame	OrigNumFrames
100	100	37	8	m	100	2523	6727
Frame#	Time	torso_imu_offset_imu	pelvis_imu_offset_imu	tibia_r_imu_offset_imu	femur_r_imu_offset_imu	tibia_l_imu_offset_imu	femur_l_imu_offset_imu	toes_r_imu_offset_imu	toes_l_imu_offset_imu
				X1	Y1	Z1	X2	Y2	Z2	X3	Y3	Z3	X4	Y4	Z4	X5	Y5	Z5	X6	Y6	Z6	X7	Y7	Z7	X8		Y8	Z8	

2523	25.22000000	0.15849371	0.68851118	0.19933558	-0.65221763	-0.18540713	0.65092854	3.71837267	1.47003775	-1.72221519	0.87336161	-0.49278132	0.29886993	0.81771923	1.02746149	3.06431715	0.00175304	0.45931598	-0.95427466	-1.02803281	-0.78668213	-0.30357471	0.78310310	-4.23523160	1.11689723
2524	25.23000000	0.18448730	0.57822582	0.17650583	-0.46720916	-0.23362328	0.49877703	3.82738718	0.69593632	-1.19955953	0.97741460	-0.79437373	0.77982493	1.17521308	1.03731819	3.25414454	0.21960001	0.39854190	-1.32749621	-0.52326996	-0.43931233	-0.21734001	0.73122092	-5.23704590	1.32235339
2525	25.24000000	0.24504411	0.45266993	0.13307271	-0.12969475	-0.26538461	0.36565648	3.55375262	0.15922921	-1.01383567	1.50206536	-0.70384500	0.96190361	1.48001583	1.16221499	3.36473257	0.53727668	0.37276718	-1.72579789	0.48720264	-0.15670807	-0.01682513	0.83184960	-6.09123367	1.55241684
2526	25.25000000	0.33603289	0.29741198	0.06685434	0.22076290	-0.23931966	0.26270732	3.37658111	-0.18535930	-1.32067815	1.62424634	-0.27390600	0.60489438	1.30997349	1.30278459	3.43256717	0.78520914	0.40937137	-2.07091062	0.02939003	-0.12794566	0.04479729	0.75496743	-7.05487567	1.78443324
2527	25.26000000	0.44159419	0.11658841	0.02205970	0.52783676	-0.21451449	0.30874737	3.06128608	-0.41169740	-1.75114885	0.92435502	-0.20925861	-0.19428011	1.32559348	1.30864392	3.52727462	0.92063463	0.45076122	-2.40572725	-0.22649440	-0.17529805	0.09239972	0.99474442	-8.22402201	2.02817596
2528	25.27000000	0.54722623	-0.05658726	0.01845062	0.71883494	-0.23799052	0.46703684	2.54504332	-0.39561085	-1.83576471	0.15488620	-0.50517404	-0.97844905	1.88498898	1.20136963	3.60070985	1.04562970	0.50616874	-2.73878038	0.00103869	-0.02335353	0.14592822	1.27407338	-8.83879764	2.45307167
2529	25.28000000	0.64673939	-0.19005888	0.05829782	0.78686697	-0.24303095	0.61957314	1.93523074	-0.19464646	-1.42578793	-0.17209033	-0.73634797	-1.51492171	2.54591887	1.05957657	3.54376086	1.14717670	0.56729531	-3.00313898	-0.01208100	0.01289615	0.14197053	0.16929905	-8.52910316	3.00178448
2530	25.29000000	0.71130684	-0.25795198	0.11234799	0.78685369	-0.17999345	0.70603660	1.31850857	-0.06880945	-0.77829420	-0.11877590	-0.73687519	-1.83250238	3.01007354	0.93674222	3.30372320	1.18263475	0.54744226	-3.18582708	-0.12487469	-0.00855007	0.12094089	-0.26817198	-7.75670973	3.28160565
2531	25.30000000	0.73077462	-0.26091120	0.16144474	0.74864328	-0.05701526	0.70821920	0.46804185	-0.28061361	-0.27449278	0.12548804	-0.58173976	-1.88187190	3.20617384	0.83516680	2.88330833	1.22611504	0.44058116	-3.31491981	-0.07021275	0.00251850	0.10410477	0.56169823	-6.87108742	3.31282866
2532	25.31000000	0.73835645	-0.24248134	0.22001507	0.68894283	0.05050548	0.63436161	-0.76582810	-0.67646898	-0.02180755	0.37892986	-0.41740476	-1.63683879	2.97166321	0.65262357	2.28584262	1.30667385	0.28356598	-3.35495305	-0.01137631	-0.02579306	0.06295127	0.97380382	-6.03078620	3.30407981
2533	25.32000000	0.76030285	-0.24344468	0.28525622	0.64197715	0.08722295	0.49366200	-2.06397233	-0.84959061	-0.00683890	0.51874714	-0.29130645	-1.24630070	2.45083906	0.46555890	1.61618757	1.41061319	0.12140042	-3.26031712	-0.09331312	-0.06138976	0.03239003	0.76734385	-5.22759465	3.34870408
2534	25.33000000	0.80188540	-0.26823332	0.33013565	0.62858933	0.07064022	0.30156901	-2.92040371	-0.80072183	-0.25791985	0.55610397	-0.26046195	-0.87676016	1.80246743	0.33324633	1.19171548	1.53321053	-0.03768153	-3.07434148	-0.11134831	-0.04982188	0.02971011	-0.11769561	-4.42205219	3.35870238
2535	25.34000000	0.84154816	-0.29714966	0.33172079	0.62836191	0.04062956	0.09443506	-3.13147110	-0.72831558	-0.72031631	0.60920012	-0.34981562	-0.58938091	1.25192172	0.10588129	1.09833039	1.66738620	-0.22492594	-2.87216583	-0.08170099	-0.04481382	0.03332801	-0.12300116	-2.46252334	2.86409228
2536	25.35000000	0.85280634	-0.30376680	0.29736107	0.62091539	0.01351818	-0.08519202	-2.86070690	-0.62749748	-1.19530853	0.70473779	-0.49105607	-0.44543506	1.18832544	-0.10047625	1.10876308	1.72829330	-0.39822222	-2.67573270	-0.14899696	-0.04973470	0.04510409	0.95272602	0.23738069	1.99779124
2537	25.36000000	0.83553287	-0.29331778	0.22833754	0.59473489	-0.00813403	-0.21355785	-2.31804981	-0.42432024	-1.42672720	0.80559436	-0.62589223	-0.45326786	1.45446766	-0.24280167	1.10413939	1.63566534	-0.51429144	-2.50870412	-0.10050280	-0.06136788	0.04387290	1.64542634	1.49677282	1.35074900
2538	25.37000000	0.80378519	-0.27611771	0.15583851	0.53289854	-0.02583507	-0.30778670	-1.57394525	-0.14938717	-1.31256179	0.87895128	-0.68931778	-0.49321789	1.54693930	-0.48940431	1.10017121	1.43313171	-0.60324201	-2.36518605	-0.06031208	-0.05850478	0.02944808	1.42305625	1.64359328	0.94378915
2539	25.38000000	0.76466087	-0.25938249	0.10047929	0.46512158	-0.03079721	-0.39242783	-0.68547983	0.09083316	-0.94309702	0.82068615	-0.67835066	-0.49862648	1.30476066	-0.78912160	0.91110026	1.16302695	-0.66383237	-2.23924866	-0.05347251	-0.05878014	0.01359441	0.81049617	1.34923993	0.59497942
2540	25.39000000	0.72791095	-0.25211732	0.06384321	0.45058140	-0.00120460	-0.45087296	0.36172282	0.20458878	-0.53570314	0.62294588	-0.64406984	-0.50175146	1.06620782	-1.02764304	0.36906661	0.80961185	-0.65971949	-2.12317618	0.01828360	-0.07321480	-0.00795920	0.39134446	1.01412438	0.16150994
2541	25.40000000	0.69143206	-0.26125110	0.03402688	0.46093534	0.05180550	-0.47353771	1.40630844	0.15140409	-0.32100081	0.32417347	-0.60775484	-0.50618344	0.85650955	-1.21813400	-0.39515497	0.36200864	-0.59011454	-2.00579175	0.07691909	-0.10134316	-0.03304321	0.33148299	0.92818644	-0.40679829
2542	25.41000000	0.64770354	-0.26986217	-0.00236875	0.45465426	0.12677197	-0.47946446	1.98501442	0.03107273	-0.34160975	-0.06058638	-0.56526691	-0.48636253	0.41768121	-1.37648534	-1.16876787	-0.13685093	-0.49506072	-1.89774307	0.09421828	-0.11271131	-0.06047869	0.47033959	1.01165575	-1.02647739
2543	25.42000000	0.60399454	-0.25471697	-0.02314352	0.44714163	0.21509873	-0.48180284	1.94539050	-0.05167550	-0.49450093	-0.43830770	-0.48678250	-0.42109655	-0.17662428	-1.46466702	-1.74432729	-0.61020406	-0.41278332	-1.78683821	0.09193778	-0.08905935	-0.08025066	0.52348139	1.24934768	-1.58039738
2544	25.43000000	0.56476118	-0.24078209	-0.03271016	0.42263196	0.29284712	-0.48248782	1.50991808	-0.13164074	-0.70999628	-0.68026758	-0.39213684	-0.34848626	-0.76250873	-1.52319496	-2.04635907	-0.97763370	-0.31263977	-1.69002521	0.09386247	-0.08390515	-0.09807878	0.41686295	1.61302630	-2.00954583
2545	25.44000000	0.53262199	-0.26034606	-0.01953935	0.37894140	0.35142978	-0.48242374	0.83447241	-0.22306868	-0.91041109	-0.76401948	-0.33703477	-0.31518502	-1.26238730	-1.61232639	-2.19924891	-1.21015528	-0.17253737	-1.60817634	0.09117857	-0.07241330	-0.11879172	0.22729454	2.07549777	-2.31104106
2546	25.45000000	0.50537236	-0.27626305	-0.00505355	0.32091920	0.38714112	-0.46356907	-0.00759948	-0.24312265	-0.98357311	-0.81515175	-0.33010219	-0.30796379	-1.59231207	-1.71978110	-2.35394041	-1.33675993	-0.01170650	-1.53502882	0.15516049	-0.06601702	-0.14120036	0.15640739	2.56327289	-2.50435956
2547	25.46000000	0.46667969	-0.25667398	0.00207756	0.25881732	0.41398037	-0.43191572	-0.84607736	-0.18986995	-0.90404722	-0.89386404	-0.35009385	-0.31453207	-1.72851629	-1.82183182	-2.54516318	-1.40101450	0.13777274	-1.45713962	0.13083398	-0.07673701	-0.15549673	0.27964154	3.06033306	-2.56083394
2548	25.47000000	0.43095349	-0.23650503	0.01876444	0.20702940	0.43056854	-0.38424857	-1.43922371	-0.14371630	-0.77194975	-0.93348074	-0.36209468	-0.34858479	-1.74966363	-1.89075949	-2.76435410	-1.45287008	0.24325493	-1.36426032	0.09101796	-0.07247933	-0.15680236	0.53698344	3.54356974	-2.45213631
2549	25.48000000	0.41474198	-0.23060676	0.03183541	0.16704059	0.43061472	-0.31779964	-1.63568268	-0.12689771	-0.71603478	-0.89676989	-0.30966458	-0.40615364	-1.66143918	-1.90160547	-3.00420703	-1.50888893	0.29534206	-1.25936311	0.10505580	-0.04959931	-0.14784332	0.84512705	3.94547671	-2.18588271
2550	25.49000000	0.39535685	-0.23215018	0.03352802	0.14659464	0.41775233	-0.25796599	-1.51184969	-0.12675309	-0.74961213	-0.79758794	-0.21787464	-0.48985703	-1.50201701	-1.83202862	-3.23619377	-1.56079408	0.32029882	-1.14635986	0.08577633	-0.03106830	-0.13188634	1.08820771	4.27588154	-1.78892448
2551	25.50000000	0.37236864	-0.24710552	0.02116074	0.14090375	0.38591557	-0.19491352	-1.22729594	-0.13320455	-0.79882106	-0.67067371	-0.17328586	-0.58704886	-1.29521616	-1.73984794	-3.44672588	-1.61500463	0.28072490	-0.99691795	0.02230713	-0.03332672	-0.11389507	1.14109335	4.54104427	-1.33397873
2552	25.51000000	0.35788298	-0.27127147	0.01660865	0.13903563	0.33539212	-0.13836206	-0.83393743	-0.12957008	-0.79750436	-0.53750123	-0.19854167	-0.67422978	-0.94040822	-1.71442776	-3.67172957	-1.65469340	0.19114584	-0.84442773	-0.02982447	-0.02455194	-0.10266901	1.05329639	4.70323203	-0.91802571
2553	25.52000000	0.34968609	-0.29553533	0.02301778	0.14032263	0.28792357	-0.09296237	-0.32456020	-0.11435689	-0.71566538	-0.40111600	-0.23985446	-0.74209664	-0.53426997	-1.72822302	-3.92986660	-1.56239039	0.14434338	-0.71492863	-0.01576627	-0.03082977	-0.10139853	1.00848747	4.76679138	-0.62174155
2554	25.53000000	0.34318081	-0.31091746	0.02741335	0.13593462	0.24186210	-0.04525197	0.18194036	-0.10871160	-0.58709512	-0.27513014	-0.25435412	-0.79257915	-0.06939153	-1.76098064	-4.16296591	-1.29709142	0.11433452	-0.56076787	-0.02055234	-0.02892236	-0.08563300	0.99532434	4.76315396	-0.48908170
2555	25.54000000	0.33475043	-0.31731383	0.02819207	0.11513629	0.19812617	-0.01241925	0.43790552	-0.11298195	-0.45482237	-0.14419882	-0.24730867	-0.81045975	0.54838207	-1.80484478	-4.31909588	-0.96464979	0.05117503	-0.42677278	0.00062326	-0.03013367	-0.07360671	0.91448990	4.68250740	-0.52586525
2556	25.55000000	0.32640635	-0.32361536	0.03030948	0.09393986	0.16462486	0.00778386	0.41735756	-0.10290996	-0.38621664	-0.01099770	-0.25999218	-0.80587608	1.20061061	-1.81984136	-4.40233707	-0.62224617	-0.01310738	-0.30990653	-0.01554833	-0.04651344	-0.06228740	0.79075968	4.53162632	-0.68813915
2557	25.56000000	0.31700379	-0.32965024	0.03501337	0.07300840	0.13337988	0.02017832	0.30482062	-0.08441920	-0.42319795	0.10076425	-0.30914849	-0.80990180	1.71546113	-1.81166789	-4.42508107	-0.27807842	-0.06263499	-0.19105335	-0.08201969	-0.06503618	-0.04739280	0.66594462	4.35393193	-0.92382351
2558	25.57000000	0.30672610	-0.32455118	0.04253955	0.04030731	0.11482150	0.02272949	0.14828246	-0.07288425	-0.52103995	0.21327357	-0.37141149	-0.81979347	1.98238475	-1.80073271	-4.38743088	0.03830311	-0.12011328	-0.04154995	-0.03989705	-0.07471846	-0.05154263	0.56845410	4.20733946	-1.18170794
2559	25.58000000	0.29690532	-0.30900116	0.04234782	0.00663025	0.09400100	0.01439711	-0.04626921	-0.06464804	-0.60882601	0.32982311	-0.43413269	-0.81434968	2.03495673	-1.85480714	-4.30125739	0.32459974	-0.18350515	0.15847152	-0.01839900	-0.07229435	-0.06837268	0.47863786	4.11323461	-1.42248062
